<svg width="691" height="796" viewBox="0 0 691 796" fill="none" xmlns="http://www.w3.org/2000/svg">
<g clip-path="url(#clip0_2_1764)">
<path d="M316 199.08V0.887695H690.5V199.08C690.5 308.559 606.645 397.273 503.25 397.273C399.855 397.273 316 308.559 316 199.08ZM315 199.08V397.273H-59.5V0.887695H127.75C231.146 0.887695 315 89.6018 315 199.08ZM503.25 398.288H690.5V794.673H503.25C399.855 794.673 316 705.958 316 596.48V398.288H503.25ZM315 596.48V794.673H-59.5V596.48C-59.5 487.002 24.354 398.288 127.75 398.288C231.146 398.288 315 487.002 315 596.48Z" fill="white" fill-opacity="0.01" stroke="#262626" stroke-width="1.00751"/>
</g>
<defs>
<clipPath id="clip0_2_1764">
<rect width="751" height="794.8" fill="white" transform="translate(-60 0.379883)"/>
</clipPath>
</defs>
</svg>
