<svg width="442" height="542" viewBox="0 0 442 542" fill="none" xmlns="http://www.w3.org/2000/svg">
<g clip-path="url(#clip0_2_1855)">
<path d="M360.955 157.708L361.386 157.438C311.545 60.939 342.851 -59.3302 436.257 -118.612C495.593 -24.63 471.939 98.1719 384.609 163.845L384.88 164.276C481.378 114.435 601.647 145.741 660.93 239.147C566.947 298.483 444.144 274.83 378.471 187.5L378.04 187.77C427.883 284.269 396.577 404.538 303.171 463.819C243.834 369.837 267.487 247.035 354.818 181.361L354.547 180.931C258.049 230.772 137.78 199.467 78.4982 106.061C172.48 46.7244 295.281 70.3786 360.955 157.708ZM369.495 172.747L369.605 172.92L369.798 172.851L369.807 172.847L370.057 172.757L369.957 172.511L369.952 172.5L369.837 172.216L369.579 172.38L369.579 172.38L369.577 172.382L369.576 172.382L369.575 172.382L369.574 172.384L369.574 172.383L369.573 172.384L369.572 172.384L369.571 172.385L369.57 172.386L369.354 172.523L369.49 172.739L369.495 172.747Z" stroke="white" stroke-opacity="0.09" stroke-width="0.510742"/>
</g>
<defs>
<clipPath id="clip0_2_1855">
<rect width="523" height="523" fill="white" transform="translate(0.189941 191.93) rotate(-47.9939)"/>
</clipPath>
</defs>
</svg>
