<svg width="41" height="41" viewBox="0 0 41 41" fill="none" xmlns="http://www.w3.org/2000/svg">
<rect x="0.630005" y="0.159912" width="40" height="40" rx="20" fill="white"/>
<path d="M26.255 15.1599V23.2849C26.255 23.4507 26.1891 23.6096 26.0719 23.7269C25.9547 23.8441 25.7957 23.9099 25.63 23.9099C25.4642 23.9099 25.3053 23.8441 25.188 23.7269C25.0708 23.6096 25.005 23.4507 25.005 23.2849V16.6685L16.0722 25.6021C15.9549 25.7194 15.7958 25.7853 15.63 25.7853C15.4641 25.7853 15.3051 25.7194 15.1878 25.6021C15.0705 25.4848 15.0046 25.3258 15.0046 25.1599C15.0046 24.9941 15.0705 24.835 15.1878 24.7177L24.1214 15.7849H17.505C17.3392 15.7849 17.1803 15.7191 17.063 15.6019C16.9458 15.4846 16.88 15.3257 16.88 15.1599C16.88 14.9942 16.9458 14.8352 17.063 14.718C17.1803 14.6008 17.3392 14.5349 17.505 14.5349H25.63C25.7957 14.5349 25.9547 14.6008 26.0719 14.718C26.1891 14.8352 26.255 14.9942 26.255 15.1599Z" fill="#2F2F2F"/>
</svg>
