<svg width="5" height="15" viewBox="0 0 5 15" fill="none" xmlns="http://www.w3.org/2000/svg">
<path d="M1.38801 15.266H0.471015V13.887H1.29701C1.45101 13.887 1.58168 13.831 1.68901 13.719C1.80101 13.607 1.85701 13.4717 1.85701 13.313V9.08502C1.85701 8.67435 1.97835 8.30102 2.22101 7.96502L2.54301 7.51002L2.22101 7.05502C1.97835 6.71902 1.85701 6.34569 1.85701 5.93502V1.70702C1.85701 1.55302 1.80101 1.42235 1.68901 1.31502C1.58168 1.20302 1.45101 1.14702 1.29701 1.14702H0.471015V-0.245981H1.38801C1.95268 -0.245981 2.40301 -0.0756477 2.73901 0.265019C3.07968 0.605686 3.25001 1.05602 3.25001 1.61602V5.93502C3.25001 6.04235 3.28268 6.14969 3.34801 6.25702L3.95701 7.11802C4.04101 7.23469 4.08301 7.36535 4.08301 7.51002C4.08301 7.65002 4.04101 7.78069 3.95701 7.90202L3.34801 8.76302C3.28268 8.86102 3.25001 8.96835 3.25001 9.08502V13.411C3.25001 13.971 3.07968 14.419 2.73901 14.755C2.40301 15.0957 1.95268 15.266 1.38801 15.266Z" fill="#5038E6"/>
</svg>
