<svg width="5" height="15" viewBox="0 0 5 15" fill="none" xmlns="http://www.w3.org/2000/svg">
<path d="M3.648 15.266C3.08333 15.266 2.63067 15.0957 2.29 14.755C1.954 14.419 1.786 13.971 1.786 13.411V9.08502C1.786 8.96835 1.75333 8.86102 1.688 8.76302L1.079 7.90202C0.999667 7.78069 0.96 7.65002 0.96 7.51002C0.96 7.36535 0.999667 7.23469 1.079 7.11802L1.688 6.25702C1.75333 6.14969 1.786 6.04235 1.786 5.93502V1.61602C1.786 1.05602 1.954 0.605686 2.29 0.265019C2.63067 -0.0756477 3.08333 -0.245981 3.648 -0.245981H4.565V1.14702H3.746C3.58733 1.14702 3.452 1.20302 3.34 1.31502C3.23267 1.42235 3.179 1.55302 3.179 1.70702V5.93502C3.179 6.34569 3.06 6.71902 2.822 7.05502L2.493 7.51002L2.822 7.96502C3.06 8.30102 3.179 8.67435 3.179 9.08502V13.313C3.179 13.4717 3.23267 13.607 3.34 13.719C3.452 13.831 3.58733 13.887 3.746 13.887H4.565V15.266H3.648Z" fill="#5038E6"/>
</svg>
