<svg width="24" height="24" viewBox="0 0 24 24" fill="none" xmlns="http://www.w3.org/2000/svg">
<g clip-path="url(#clip0_60_60)">
<path d="M0.761576 0C1.18171 0 1.52962 0.307384 1.52962 0.691614V10.5402C1.52962 14.678 5.26484 18.0414 9.86001 18.0414H20.9934L16.1751 14.6898C15.8403 14.4593 15.7812 14.0218 16.0372 13.7203C16.2932 13.419 16.779 13.3657 17.1138 13.5963L23.7046 18.1833C23.895 18.3134 24 18.5144 24 18.7272C24 18.94 23.8884 19.141 23.7046 19.271L17.1072 23.8581C16.9694 23.9527 16.8053 24 16.6412 24C16.4114 24 16.1882 23.9054 16.0372 23.734C15.7812 23.4325 15.8403 23.001 16.1751 22.7646L20.9934 19.4188H9.86001C4.42458 19.4188 9.1415e-05 15.4347 9.1415e-05 10.5402V0.691614C-0.00647368 0.307384 0.341446 0 0.761576 0Z" fill="#FFFFFF"/>
</g>
<defs>
<clipPath id="clip0_60_60">
<rect width="24" height="24" fill="white"/>
</clipPath>
</defs>
</svg>
