 <svg  version="1.0" xmlns="http://www.w3.org/2000/svg"  width="336.000000pt" height="900.000000pt" viewBox="0 0 336.000000 900.000000"  preserveAspectRatio="xMidYMid meet">  <g transform="translate(0.000000,900.000000) scale(0.100000,-0.100000)" fill="currentColor" stroke="none"> <path d="M1470 8750 c-47 -4 -98 -13 -113 -19 -16 -6 -39 -11 -52 -11 -14 0 -39 -6 -57 -14 -18 -8 -53 -22 -78 -31 -41 -16 -164 -75 -208 -100 -141 -81 -376 -299 -404 -376 -4 -10 -12 -19 -18 -19 -5 0 -10 -4 -10 -10 0 -5 -12 -26 -26 -47 -14 -21 -41 -72 -60 -113 -19 -41 -40 -84 -46 -95 -6 -11 -15 -36 -19 -55 -4 -19 -17 -66 -29 -105 -45 -147 -45 -490 -1 -645 12 -41 25 -91 30 -110 4 -19 13 -44 19 -55 7 -11 28 -54 47 -95 70 -149 131 -236 255 -360 70 -71 176 -158 210 -173 8 -4 29 -16 45 -26 75 -48 205 -106 300 -134 171 -52 161 -50 390 -50 146 0 230 5 250 13 17 6 48 15 70 20 90 19 272 95 360 151 17 10 37 22 45 26 63 30 276 228 329 307 131 194 182 304 236 513 22 85 25 115 25 289 0 196 -3 221 -47 374 -19 65 -49 152 -62 177 -4 10 -19 38 -31 63 -27 53 -127 208 -150 231 -8 9 -36 38 -61 66 -96 103 -240 211 -368 277 -30 16 -62 32 -70 36 -9 5 -38 16 -66 25 -27 9 -63 23 -80 30 -88 38 -381 62 -555 45z"/> <path d="M2905 5848 c-16 -6 -46 -16 -65 -23 -50 -18 -190 -65 -225 -75 -16 -5 -52 -16 -80 -24 -27 -8 -81 -26 -120 -40 -38 -14 -79 -26 -91 -26 -11 0 -24 -4 -30 -9 -12 -13 -128 -51 -153 -51 -11 0 -22 -4 -26 -9 -3 -5 -20 -13 -38 -17 -17 -3 -45 -12 -62 -19 -38 -16 -92 -34 -130 -45 -16 -5 -57 -19 -90 -30 -33 -12 -73 -26 -90 -30 -16 -5 -57 -19 -90 -30 -33 -12 -73 -26 -90 -30 -26 -7 -106 -34 -210 -70 -46 -17 -145 -49 -200 -66 -27 -9 -66 -21 -85 -29 -19 -7 -62 -21 -95 -30 -33 -10 -71 -23 -85 -30 -14 -6 -54 -20 -90 -29 -36 -10 -81 -24 -100 -32 -19 -7 -60 -21 -90 -30 -117 -36 -212 -74 -222 -89 -4 -5 -8 -285 -8 -622 l0 -612 29 -20 c16 -12 37 -21 48 -21 10 0 50 -12 88 -26 39 -14 84 -29 100 -34 17 -4 66 -20 110 -34 44 -14 105 -33 135 -42 83 -25 163 -56 179 -70 15 -14 7 -34 -15 -34 -8 0 -22 -4 -32 -10 -25 -15 -92 -37 -237 -80 -28 -8 -141 -46 -210 -71 -16 -6 -61 -20 -100 -31 -38 -12 -76 -28 -83 -37 -18 -22 -18 -1230 1 -1253 6 -9 23 -18 37 -21 14 -3 41 -11 60 -17 83 -30 108 -38 160 -54 30 -10 71 -23 90 -30 19 -8 62 -21 95 -31 33 -9 75 -23 93 -31 18 -8 39 -14 47 -14 7 0 35 -9 61 -20 45 -20 46 -21 30 -39 -10 -11 -70 -36 -134 -56 -64 -20 -132 -43 -150 -51 -18 -8 -39 -14 -47 -14 -8 0 -29 -6 -47 -14 -48 -20 -188 -67 -225 -74 -17 -4 -43 -17 -57 -29 l-26 -23 0 -604 c0 -365 4 -607 9 -611 12 -7 70 7 141 34 30 12 71 26 90 31 19 4 69 20 110 34 41 15 98 33 125 42 28 9 66 21 85 28 19 8 60 21 90 30 30 10 71 23 90 31 19 7 62 21 95 30 33 10 71 23 85 30 14 6 54 20 90 29 36 10 74 22 85 27 58 25 132 49 151 49 11 0 29 7 40 15 10 8 27 15 36 15 10 0 32 6 50 14 18 7 58 21 88 31 30 9 71 22 90 29 19 8 60 21 90 30 30 10 71 23 90 31 19 7 62 21 95 30 33 10 74 23 90 30 17 6 57 20 90 30 33 10 74 23 90 30 17 6 57 20 90 30 33 10 71 22 85 27 13 5 51 18 85 29 33 11 74 24 90 30 17 6 44 15 60 19 17 5 48 15 70 23 l40 15 3 631 2 631 -22 9 c-13 5 -50 16 -83 26 -33 10 -73 24 -90 30 -16 7 -61 22 -100 33 -38 11 -86 26 -105 33 -54 18 -102 35 -140 48 -19 7 -48 16 -65 20 -32 8 -95 39 -95 46 0 9 51 37 82 45 18 5 65 20 103 34 39 14 79 26 90 26 12 0 25 4 30 8 6 5 44 19 85 32 155 48 285 92 298 102 9 8 12 147 12 635 0 585 -1 624 -17 629 -10 3 -35 12 -55 20 -83 31 -116 42 -173 59 -33 9 -73 23 -90 30 -16 7 -66 23 -110 35 -44 13 -87 26 -95 30 -12 6 -78 26 -147 46 -7 2 -13 10 -13 17 0 28 22 37 320 127 58 17 119 36 135 41 17 6 59 20 95 31 36 12 84 28 108 37 l42 16 -2 619 c-2 403 -6 620 -13 622 -5 1 -23 -3 -40 -8z"/> </g> </svg> 