<svg width="49" height="32" viewBox="0 0 49 32" fill="none" xmlns="http://www.w3.org/2000/svg">
<g clip-path="url(#clip0_2_1081)">
<path opacity="0.5" d="M10.9066 0.379883C4.89818 0.379883 0 5.34447 0 11.4396C0 15.585 2.23684 19.3043 5.77985 21.205C5.60025 23.1384 4.80022 27.2509 1.51844 28.1521C0.734727 28.3651 0.228582 29.1188 0.326545 29.9217C0.424509 30.7245 1.0776 31.3471 1.89396 31.3635H2.13887C3.73894 31.3635 12.523 31.0031 18.2049 23.3514C21.8949 18.3868 22.9888 12.9962 21.3071 8.24457C19.9029 3.54214 15.7232 0.379883 10.9066 0.379883ZM48.2307 8.26096C46.8266 3.55853 42.6468 0.396268 37.8303 0.396268C31.8218 0.396268 26.9237 5.36085 26.9237 11.456C26.9237 15.6014 29.1605 19.3207 32.7035 21.2213C32.5239 23.1547 31.7239 27.2673 28.4421 28.1685C27.6584 28.3815 27.1522 29.1352 27.2502 29.938C27.3482 30.7409 28.0013 31.3635 28.8176 31.3799H29.0625C30.6626 31.3799 39.4467 31.0194 45.1286 23.3677C48.8185 18.4032 49.9125 13.0126 48.2307 8.26096Z" fill="#5038E6"/>
</g>
<defs>
<clipPath id="clip0_2_1081">
<rect width="49" height="31" fill="#5038E6" transform="translate(0 0.379883)"/>
</clipPath>
</defs>
</svg>
